<svg xmlns="http://www.w3.org/2000/svg" xmlns:xlink="http://www.w3.org/1999/xlink" preserveAspectRatio="xMidYMid meet" version="1.0" viewBox="145.6 67.5 220.8 387.1" zoomAndPan="magnify" style="fill: rgb(164, 219, 232);" original_string_length="1077" width="45.867808342195374px" height="80.34170251021483px"><g id="__id2_sxnt11lc6u"><path d="M256,67.5c-60.9,0-110.4,49.5-110.4,110.4c0,45.9,63.4,136.5,95.8,179.8c6.2,8.3,11.3,14.9,14.6,19.1 c3.3-4.2,8.3-10.7,14.6-19.1c32.4-43.3,95.8-133.9,95.8-179.8C366.4,117,316.9,67.5,256,67.5z M256,199.4 c-29.1,0-52.8-23.7-52.8-52.8c0-29.1,23.7-52.8,52.8-52.8c29.1,0,52.8,23.7,52.8,52.8C308.8,175.8,285.1,199.4,256,199.4z" style="fill: inherit;"/></g><g id="__id3_sxnt11lc6u"><path d="M348.7,403.4c0,28.7-40.7,51.2-92.7,51.2c-52,0-92.7-22.5-92.7-51.2c0-15.1,11.7-29.3,32-38.9c2.5-1.2,5.6-0.1,6.8,2.4 c1.2,2.5,0.1,5.6-2.4,6.8c-16.7,7.9-26.2,18.7-26.2,29.7c0,22.3,37.8,41.1,82.5,41.1s82.5-18.8,82.5-41.1c0-11-9.5-21.8-26.2-29.7 c-2.5-1.2-3.6-4.2-2.4-6.8v0c1.2-2.5,4.2-3.6,6.8-2.4C337,374.1,348.7,388.3,348.7,403.4z" style="fill: inherit;"/></g></svg>